# xmcd
#
# Track frame offsets: 
#        150
#        120857
#        152250
#        234607
#
# Disc length: 4321 seconds
#
# Revision: 2
# Processed by: cddbd v1.5.2PL0 Copyright (c) Steve Scherf et al.
# Submitted via: ExactAudioCopy v1.0b6
#
DISCID=1e10df04
DTITLE=Miles Davis - The Complete In A Silent Way Sessions Disc 3 SICP
DTITLE=35-7
DYEAR=2001
DGENRE=Jazz
TTITLE0=The Ghetto Walk
TTITLE1=Early Minor
TTITLE2=Shhh／Peaceful (LP Version)
TTITLE3=In A Silent Way／It's About That Time (LP Version)
EXTD=YEAR: 2001
EXTT0=
EXTT1=
EXTT2=
EXTT3=
PLAYORDER=
